<?xml version="1.0" encoding="UTF-8"?>
<svg id="Capa_1" data-name="Capa 1" xmlns="http://www.w3.org/2000/svg" viewBox="0 0 1080 1080">
  <defs>
    <style>
      .cls-1 {
        fill: #7c7c7c;
      }

      .cls-2 {
        fill: #333;
      }

      .cls-3 {
        fill: #f9f9f9;
      }
    </style>
  </defs>
  <rect class="cls-3" x="0" width="1080" height="1080"/>
  <g>
    <path class="cls-1" d="m357.73,538.1c13.13-35.26,30.49-61.36,52.07-78.24,21.57-16.89,48.31-25.33,80.21-25.33,17.26,0,34.24,2.07,50.94,6.19,16.69,4.13,33.11,10.13,49.26,18.01l-43.91,103.57c-10.51-7.5-21.87-13.03-34.06-16.6-12.2-3.55-25.8-5.34-40.81-5.34-40.53,0-69.62,16.24-87.25,48.69-17.64,32.46-26.46,86.98-26.46,163.52v234.17h-122.15V451.98h122.15v86.12Z"/>
    <path class="cls-2" d="m826.73,284.57c-7.67-10.26-17.64-18.11-29.8-23.48,9.32-4.53,17.23-11,23.66-19.36,10.88-14.14,16.39-32.33,16.39-54.04,0-28.77-9.67-52-28.74-69.04-18.85-16.84-44.52-25.38-76.28-25.38s-58.87,8.13-77.63,24.16c-18.96,16.21-29.39,39.58-30.99,69.46l-.38,7.14h62.16l.21-6.56c.39-12.08,4.3-21.12,11.93-27.62,7.79-6.63,19.01-9.99,33.34-9.99,13.36,0,23.61,3.5,31.31,10.68,7.57,7.07,11.25,16.46,11.25,28.73,0,13.93-4.06,24.04-12.41,30.94-8.61,7.12-22.02,10.72-39.85,10.72-.95,0-2.4-.07-4.39-.21-2.38-.16-4.15-.24-5.3-.24h-6.78v56.82h6.78c1.3,0,3.18-.08,5.63-.24,2.05-.14,3.55-.21,4.51-.21,20.41,0,35.75,4.46,45.61,13.26,9.77,8.72,14.52,21.62,14.52,39.44s-4.62,29.42-14.13,38.15c-9.55,8.76-23.59,13.2-41.73,13.2-15.96,0-28.64-3.99-37.68-11.86-8.9-7.73-13.22-17.92-13.22-31.16v-9.48h-65.14l.21,6.98c.96,31.37,11.94,56.76,32.66,75.46,20.57,18.57,47.88,27.99,81.15,27.99,36.47,0,65.95-9.22,87.61-27.38,22.02-18.47,33.18-43.68,33.18-74.93,0-25.41-5.95-46.26-17.69-61.97Z"/>
  </g>
</svg>