<?xml version="1.0" encoding="utf-8"?>
<!-- Generator: Adobe Illustrator 27.2.0, SVG Export Plug-In . SVG Version: 6.00 Build 0)  -->
<svg version="1.1" id="Capa_1" xmlns="http://www.w3.org/2000/svg" xmlns:xlink="http://www.w3.org/1999/xlink" x="0px" y="0px"
	 viewBox="0 0 1290.2 478.1" style="enable-background:new 0 0 1290.2 478.1;" xml:space="preserve">
<style type="text/css">
	.st0{fill:#848484;}
	.st1{fill:#1D1D1B;}
</style>
<path class="st0" d="M162.7,223.8c3.2-8.6,7.4-15,12.7-19.1s11.8-6.2,19.6-6.2c4.2,0,8.4,0.5,12.4,1.5s8.1,2.5,12,4.4l-10.7,25.3
	c-2.6-1.8-5.3-3.2-8.3-4.1c-3-0.9-6.3-1.3-10-1.3c-9.9,0-17,4-21.3,11.9s-6.5,21.2-6.5,39.9v57.2h-29.8V202.8h29.8v21H162.7z"/>
<path class="st0" d="M354.7,272.6H250.5c0.7,12.2,4.4,21.7,10.9,28.5s15.2,10.2,26,10.2c9.6,0,17.6-2,24-6s12-10.5,16.8-19.5
	l25.1,14c-7.3,13.1-16.4,22.9-27.2,29.3c-10.8,6.4-23.5,9.6-38.1,9.6c-20.9,0-37.5-6.4-49.9-19.1s-18.6-29.7-18.6-51
	s6.4-37.2,19.2-50.4s29.2-19.7,49.3-19.7s37.3,6,49.1,18c11.7,12,17.6,28.8,17.6,50.4L354.7,272.6L354.7,272.6z M323.8,252.5
	c-1.2-9.4-4.8-16.5-10.7-21.4s-14.1-7.4-24.5-7.4c-9.8,0-17.7,2.4-23.6,7.1s-10.1,12-12.5,21.6L323.8,252.5L323.8,252.5z"/>
<path class="st0" d="M393.5,333.3V229.1h-22.8V203h22.8v-34.9c0-17.3,3.6-30.1,10.8-38.3c7.2-8.2,18.4-12.4,33.5-12.4
	c3.2,0,6.5,0.2,9.9,0.7s6.8,1.2,10.3,2.2v26.9c-2.4-1.4-4.8-2.4-7.2-3.1c-2.4-0.7-4.9-1-7.4-1c-7.1,0-12.3,2.2-15.4,6.6
	c-3.1,4.4-4.7,11.8-4.7,22.3v31h31.3v26.1h-31.3v104.2H393.5L393.5,333.3z"/>
<path class="st0" d="M462.3,268.3c0-9.5,1.8-18.5,5.4-27s8.8-16,15.6-22.6c6.7-6.5,14.4-11.5,23.1-15c8.7-3.5,17.8-5.2,27.3-5.2
	s19,1.7,27.7,5.2s16.4,8.6,23.3,15.4c6.9,6.7,12.1,14.2,15.7,22.7c3.6,8.4,5.4,17.3,5.4,26.5s-1.8,18.6-5.3,27.1
	c-3.5,8.4-8.7,15.9-15.5,22.4c-7.2,6.9-15.1,12.1-23.8,15.6s-17.9,5.3-27.5,5.3s-18.5-1.8-27.2-5.3s-16.5-8.6-23.2-15.3
	c-6.9-6.8-12.1-14.4-15.7-22.8C464.1,286.8,462.3,277.8,462.3,268.3L462.3,268.3z M574.3,268.6c0-12.1-3.9-22.3-11.7-30.7
	s-17.3-12.6-28.6-12.6s-20.7,4.2-28.5,12.6c-7.8,8.4-11.8,18.6-11.8,30.7s3.9,22.3,11.8,30.7c7.8,8.4,17.3,12.6,28.5,12.6
	s20.7-4.2,28.5-12.6C570.4,290.9,574.3,280.7,574.3,268.6z"/>
<path class="st0" d="M663.6,223.8c3.2-8.6,7.4-15,12.7-19.1s11.8-6.2,19.6-6.2c4.2,0,8.4,0.5,12.4,1.5s8.1,2.5,12,4.4l-10.7,25.3
	c-2.6-1.8-5.3-3.2-8.3-4.1c-3-0.9-6.3-1.3-10-1.3c-9.9,0-17,4-21.3,11.9s-6.5,21.2-6.5,39.9v57.2h-29.8V202.8h29.8L663.6,223.8
	L663.6,223.8z"/>
<path class="st0" d="M770.8,333.3H741V203h28v21.3c6-9.1,12.7-15.7,20.3-19.9s16.5-6.2,26.7-6.2s18.6,2.1,25.3,6.4
	s11.8,10.7,15.3,19.4c6.9-9,14.2-15.5,21.9-19.7c7.7-4.1,16.6-6.2,26.5-6.2c8.6,0,16.1,1.6,22.5,4.7s11.4,7.8,15,13.8
	c1.7,2.8,2.9,6.2,3.6,10.2s1.2,9.6,1.2,16.9v89.5h-29.8v-66.9c0-17.5-1.9-29-5.6-34.6c-3.7-5.5-10.3-8.3-19.9-8.3
	c-11.7,0-20.1,3.7-25.1,11.2s-7.5,20.6-7.5,39.2v59.4h-30.1v-66.9c0-16.1-2-27.3-5.8-33.5c-3.9-6.2-10.6-9.4-20.1-9.4
	c-5.9,0-11.2,1.3-16.1,4c-4.9,2.7-8.7,6.3-11.5,11c-1.8,3-3.1,6.7-3.8,11.1c-0.7,4.4-1.1,12.5-1.1,24.3L770.8,333.3L770.8,333.3z"/>
<path class="st1" d="M1106.3,333.3h-29.8v-16.9c-5.3,7.5-11.5,13.1-18.6,16.8c-7.1,3.7-15.2,5.5-24.4,5.5
	c-18.4,0-32.9-6.3-43.5-18.9s-15.9-29.9-15.9-51.8s5.4-37.6,16.2-50.4s24.9-19.2,42.3-19.2c10.6,0,19.7,2.2,27.3,6.7
	c7.6,4.4,13.1,10.8,16.6,19.2V203h29.8V333.3L1106.3,333.3z M1077.3,267.8c0-13.5-3.1-24-9.4-31.5s-15.1-11.3-26.3-11.3
	s-20.1,3.9-26.6,11.6c-6.5,7.7-9.7,18.5-9.7,32.2c0,13.7,3.1,24.5,9.3,32s15,11.3,26.4,11.3c10.7,0,19.4-4.1,26.2-12.2
	C1073.9,291.8,1077.3,281,1077.3,267.8L1077.3,267.8z"/>
<path class="st1" d="M1187.1,164.1c-1.9-2.5-4.3-4.4-7.3-5.7c2.3-1.1,4.2-2.7,5.8-4.7c2.7-3.4,4-7.9,4-13.2c0-7-2.4-12.7-7-16.9
	c-4.6-4.1-10.9-6.2-18.6-6.2s-14.4,2-18.9,5.9c-4.6,4-7.2,9.7-7.6,17l-0.1,1.7h15.2l0.1-1.6c0.1-2.9,1.1-5.2,2.9-6.7
	c1.9-1.6,4.6-2.4,8.1-2.4c3.3,0,5.8,0.9,7.7,2.6c1.8,1.7,2.8,4,2.8,7c0,3.4-1,5.9-3,7.6c-2.1,1.7-5.4,2.6-9.7,2.6
	c-0.2,0-0.6,0-1.1-0.1c-0.6,0-1-0.1-1.3-0.1h-1.7v13.9h1.7c0.3,0,0.8,0,1.4-0.1c0.5,0,0.9-0.1,1.1-0.1c5,0,8.7,1.1,11.1,3.2
	c2.4,2.1,3.6,5.3,3.6,9.6s-1.1,7.2-3.4,9.3s-5.8,3.2-10.2,3.2c-3.9,0-7-1-9.2-2.9s-3.2-4.4-3.2-7.6v-2.3h-15.9l0.1,1.7
	c0.2,7.7,2.9,13.9,8,18.4c5,4.5,11.7,6.8,19.8,6.8c8.9,0,16.1-2.2,21.4-6.7c5.4-4.5,8.1-10.7,8.1-18.3
	C1191.4,173,1189.9,167.9,1187.1,164.1L1187.1,164.1z"/>
</svg>
