<?xml version="1.0" encoding="UTF-8"?>
<svg id="Capa_1" data-name="Capa 1" xmlns="http://www.w3.org/2000/svg" viewBox="0 0 1290.24 478.08">
  <defs>
    <style>
      .cls-1 {
        fill: #7c7c7c;
      }

      .cls-2 {
        fill: #333;
      }
    </style>
  </defs>
  <path class="cls-1" d="m166.68,223.78c3.21-8.61,7.44-14.98,12.71-19.1,5.27-4.12,11.8-6.19,19.58-6.19,4.21,0,8.36.5,12.44,1.51,4.08,1.01,8.09,2.47,12.03,4.4l-10.72,25.29c-2.57-1.83-5.34-3.18-8.32-4.05-2.98-.87-6.3-1.31-9.96-1.31-9.9,0-17,3.96-21.3,11.89-4.31,7.93-6.46,21.24-6.46,39.93v57.18h-29.82v-130.57h29.82v21.03Z"/>
  <path class="cls-1" d="m358.69,272.57h-104.18c.73,12.19,4.35,21.69,10.86,28.52,6.5,6.83,15.16,10.24,25.98,10.24,9.62,0,17.64-2.02,24.05-6.05,6.41-4.03,12-10.54,16.77-19.52l25.15,14.02c-7.33,13.1-16.4,22.86-27.21,29.28-10.81,6.41-23.5,9.62-38.07,9.62-20.89,0-37.52-6.37-49.89-19.1-12.37-12.74-18.55-29.73-18.55-50.99s6.39-37.22,19.17-50.37c12.78-13.15,29.21-19.72,49.27-19.72s37.34,6,49.07,18.01c11.73,12,17.59,28.82,17.59,50.44v5.63Zm-30.92-20.07c-1.19-9.35-4.76-16.47-10.72-21.37-5.96-4.9-14.11-7.35-24.46-7.35-9.81,0-17.68,2.39-23.64,7.15-5.96,4.76-10.13,11.96-12.51,21.58h71.33Z"/>
  <path class="cls-1" d="m397.51,333.32v-104.18h-22.81v-26.11h22.81v-34.91c0-17.32,3.6-30.1,10.79-38.35,7.19-8.25,18.35-12.37,33.47-12.37,3.21,0,6.5.23,9.9.69,3.39.46,6.82,1.19,10.31,2.2v26.94c-2.38-1.37-4.79-2.41-7.22-3.09-2.43-.69-4.88-1.03-7.35-1.03-7.15,0-12.28,2.2-15.39,6.6-3.12,4.4-4.67,11.82-4.67,22.26v31.06h31.34v26.11h-31.34v104.18h-29.82Z"/>
  <path class="cls-1" d="m466.3,268.31c0-9.53,1.81-18.53,5.43-27.01,3.62-8.47,8.82-16.01,15.6-22.61,6.69-6.5,14.38-11.5,23.09-14.98,8.7-3.48,17.82-5.22,27.35-5.22s19.04,1.74,27.69,5.22c8.66,3.48,16.42,8.62,23.3,15.39,6.87,6.69,12.09,14.25,15.67,22.68,3.57,8.43,5.36,17.27,5.36,26.52s-1.77,18.65-5.29,27.07c-3.53,8.43-8.68,15.9-15.46,22.4-7.15,6.87-15.07,12.07-23.78,15.6-8.71,3.53-17.87,5.29-27.49,5.29s-18.51-1.76-27.21-5.29c-8.71-3.53-16.45-8.63-23.23-15.32-6.87-6.78-12.09-14.38-15.67-22.81-3.57-8.43-5.36-17.41-5.36-26.94Zm112.01.27c0-12.09-3.9-22.33-11.68-30.72-7.79-8.38-17.32-12.58-28.59-12.58s-20.68,4.19-28.52,12.58c-7.83,8.38-11.75,18.62-11.75,30.72s3.92,22.33,11.75,30.72c7.83,8.38,17.34,12.57,28.52,12.57s20.68-4.19,28.52-12.57c7.83-8.38,11.75-18.62,11.75-30.72Z"/>
  <path class="cls-1" d="m667.58,223.78c3.21-8.61,7.44-14.98,12.71-19.1,5.27-4.12,11.8-6.19,19.58-6.19,4.21,0,8.36.5,12.44,1.51,4.08,1.01,8.09,2.47,12.03,4.4l-10.72,25.29c-2.56-1.83-5.34-3.18-8.31-4.05-2.98-.87-6.3-1.31-9.96-1.31-9.9,0-17,3.96-21.3,11.89-4.31,7.93-6.46,21.24-6.46,39.93v57.18h-29.82v-130.57h29.82v21.03Z"/>
  <path class="cls-1" d="m774.85,333.32h-29.82v-130.29h28.04v21.3c5.95-9.07,12.71-15.69,20.27-19.86,7.56-4.17,16.47-6.25,26.73-6.25s18.6,2.13,25.29,6.39c6.69,4.26,11.77,10.74,15.26,19.45,6.87-8.98,14.18-15.53,21.92-19.66,7.74-4.12,16.56-6.18,26.46-6.18,8.61,0,16.13,1.58,22.54,4.74,6.41,3.16,11.41,7.77,14.98,13.81,1.65,2.84,2.86,6.23,3.64,10.17.78,3.94,1.17,9.58,1.17,16.9v89.47h-29.82v-66.93c0-17.5-1.86-29.02-5.57-34.57-3.71-5.54-10.33-8.31-19.86-8.31-11.73,0-20.09,3.73-25.08,11.2-5,7.47-7.49,20.55-7.49,39.24v59.37h-30.1v-66.93c0-16.13-1.95-27.3-5.84-33.54-3.9-6.23-10.61-9.35-20.13-9.35-5.87,0-11.23,1.33-16.08,3.99-4.86,2.66-8.71,6.32-11.55,10.99-1.83,3.02-3.12,6.73-3.85,11.13-.73,4.4-1.1,12.51-1.1,24.33v59.37Z"/>
  <path class="cls-2" d="m1110.28,333.32h-29.83v-16.9c-5.31,7.51-11.52,13.1-18.62,16.77-7.1,3.66-15.23,5.5-24.4,5.5-18.42,0-32.92-6.3-43.5-18.9-10.58-12.6-15.87-29.85-15.87-51.75s5.41-37.59,16.22-50.37c10.81-12.78,24.92-19.17,42.33-19.17,10.63,0,19.72,2.22,27.28,6.67,7.56,4.44,13.08,10.84,16.56,19.17v-21.3h29.83v130.29Zm-29-65.56c0-13.47-3.14-23.96-9.41-31.47-6.28-7.51-15.05-11.27-26.32-11.27s-20.14,3.87-26.59,11.61c-6.46,7.74-9.69,18.49-9.69,32.23s3.12,24.51,9.35,32.02c6.23,7.51,15.03,11.27,26.39,11.27,10.72,0,19.45-4.08,26.18-12.23,6.73-8.15,10.1-18.87,10.1-32.16Z"/>
  <path class="cls-2" d="m1191.06,164.11c-1.87-2.51-4.31-4.42-7.28-5.73,2.28-1.11,4.21-2.69,5.78-4.73,2.66-3.45,4-7.89,4-13.19,0-7.02-2.36-12.7-7.02-16.86-4.6-4.11-10.87-6.2-18.63-6.2s-14.37,1.98-18.95,5.9c-4.63,3.96-7.17,9.66-7.57,16.96l-.09,1.74h15.18l.05-1.6c.1-2.95,1.05-5.16,2.91-6.74,1.9-1.62,4.64-2.44,8.14-2.44,3.26,0,5.76.85,7.65,2.61,1.85,1.73,2.75,4.02,2.75,7.01,0,3.4-.99,5.87-3.03,7.55-2.1,1.74-5.38,2.62-9.73,2.62-.23,0-.59-.02-1.07-.05-.58-.04-1.01-.06-1.29-.06h-1.66v13.87h1.66c.32,0,.78-.02,1.38-.06.5-.03.87-.05,1.1-.05,4.98,0,8.73,1.09,11.14,3.24,2.39,2.13,3.55,5.28,3.55,9.63s-1.13,7.18-3.45,9.31c-2.33,2.14-5.76,3.22-10.19,3.22-3.9,0-6.99-.97-9.2-2.89-2.17-1.89-3.23-4.38-3.23-7.61v-2.32h-15.9l.05,1.71c.23,7.66,2.92,13.86,7.97,18.43,5.02,4.53,11.69,6.83,19.81,6.83,8.9,0,16.1-2.25,21.39-6.69,5.38-4.51,8.1-10.66,8.1-18.29,0-6.2-1.45-11.29-4.32-15.13Z"/>
</svg>